<?xml version="1.0" encoding="utf-8"?>
<svg version="1.1" xmlns:xlink="http://www.w3.org/1999/xlink" width="12px" height="12px" viewBox="605 1048  12 12" xmlns="http://www.w3.org/2000/svg">
  <path d="M 611 1048  C 614.36 1048  617 1050.64  617 1054  C 617 1057.36  614.36 1060  611 1060  C 607.64 1060  605 1057.36  605 1054  C 605 1050.64  607.64 1048  611 1048  Z " fill-rule="nonzero" fill="#f0f0f0" stroke="none" />
  <path d="M 611 1048.5  C 614.08 1048.5  616.5 1050.92  616.5 1054  C 616.5 1057.08  614.08 1059.5  611 1059.5  C 607.92 1059.5  605.5 1057.08  605.5 1054  C 605.5 1050.92  607.92 1048.5  611 1048.5  Z " stroke-width="1" stroke="#797979" fill="none" />
  <path d="M 611 1057  C 609.32 1057  608 1055.68  608 1054  C 608 1052.32  609.32 1051  611 1051  C 612.68 1051  614 1052.32  614 1054  C 614 1055.68  612.68 1057  611 1057  " fill-rule="nonzero" fill="#797979" stroke="none" />
</svg>