<?xml version="1.0" encoding="utf-8"?>
<svg version="1.1" xmlns:xlink="http://www.w3.org/1999/xlink" width="50px" height="50px" xmlns="http://www.w3.org/2000/svg">
  <g transform="matrix(1 0 0 1 -72 -131 )">
    <path d="M 97 131  C 111 131  122 142  122 156  C 122 170  111 181  97 181  C 83 181  72 170  72 156  C 72 142  83 131  97 131  Z " fill-rule="nonzero" fill="#ffffff" stroke="none" />
    <path d="M 97 131.5  C 110.72 131.5  121.5 142.28  121.5 156  C 121.5 169.72  110.72 180.5  97 180.5  C 83.28 180.5  72.5 169.72  72.5 156  C 72.5 142.28  83.28 131.5  97 131.5  Z " stroke-width="1" stroke="#797979" fill="none" />
  </g>
</svg>