<?xml version="1.0" encoding="utf-8"?>
<svg version="1.1" xmlns:xlink="http://www.w3.org/1999/xlink" width="12px" height="12px" viewBox="70 567  12 12" xmlns="http://www.w3.org/2000/svg">
  <path d="M 76 567  C 79.36 567  82 569.64  82 573  C 82 576.36  79.36 579  76 579  C 72.64 579  70 576.36  70 573  C 70 569.64  72.64 567  76 567  Z " fill-rule="nonzero" fill="#ffffff" stroke="none" />
  <path d="M 76 567.5  C 79.08 567.5  81.5 569.92  81.5 573  C 81.5 576.08  79.08 578.5  76 578.5  C 72.92 578.5  70.5 576.08  70.5 573  C 70.5 569.92  72.92 567.5  76 567.5  Z " stroke-width="1" stroke="#797979" fill="none" />
  <path d="M 76 576  C 74.32 576  73 574.68  73 573  C 73 571.32  74.32 570  76 570  C 77.68 570  79 571.32  79 573  C 79 574.68  77.68 576  76 576  " fill-rule="nonzero" fill="#797979" stroke="none" />
</svg>