<?xml version="1.0" encoding="utf-8"?>
<svg version="1.1" xmlns:xlink="http://www.w3.org/1999/xlink" width="12px" height="12px" viewBox="371 1048  12 12" xmlns="http://www.w3.org/2000/svg">
  <path d="M 377 1048  C 380.36 1048  383 1050.64  383 1054  C 383 1057.36  380.36 1060  377 1060  C 373.64 1060  371 1057.36  371 1054  C 371 1050.64  373.64 1048  377 1048  Z " fill-rule="nonzero" fill="#ffffff" stroke="none" />
  <path d="M 377 1048.5  C 380.08 1048.5  382.5 1050.92  382.5 1054  C 382.5 1057.08  380.08 1059.5  377 1059.5  C 373.92 1059.5  371.5 1057.08  371.5 1054  C 371.5 1050.92  373.92 1048.5  377 1048.5  Z " stroke-width="1" stroke="#797979" fill="none" />
  <path d="M 377 1057  C 375.32 1057  374 1055.68  374 1054  C 374 1052.32  375.32 1051  377 1051  C 378.68 1051  380 1052.32  380 1054  C 380 1055.68  378.68 1057  377 1057  " fill-rule="nonzero" fill="#797979" stroke="none" />
</svg>