<?xml version="1.0" encoding="utf-8"?>
<svg version="1.1" xmlns:xlink="http://www.w3.org/1999/xlink" width="12px" height="12px" viewBox="1545 476  12 12" xmlns="http://www.w3.org/2000/svg">
  <path d="M 1551 476  C 1554.36 476  1557 478.64  1557 482  C 1557 485.36  1554.36 488  1551 488  C 1547.64 488  1545 485.36  1545 482  C 1545 478.64  1547.64 476  1551 476  Z " fill-rule="nonzero" fill="#ffffff" stroke="none" />
  <path d="M 1551 476.5  C 1554.08 476.5  1556.5 478.92  1556.5 482  C 1556.5 485.08  1554.08 487.5  1551 487.5  C 1547.92 487.5  1545.5 485.08  1545.5 482  C 1545.5 478.92  1547.92 476.5  1551 476.5  Z " stroke-width="1" stroke="#797979" fill="none" />
  <path d="M 1551 485  C 1549.32 485  1548 483.68  1548 482  C 1548 480.32  1549.32 479  1551 479  C 1552.68 479  1554 480.32  1554 482  C 1554 483.68  1552.68 485  1551 485  " fill-rule="nonzero" fill="#797979" stroke="none" />
</svg>